{"title":"This Is Us - S01E02 - The Big Three [1080p] WEB-DL","uid":15968443,"size":1859662587,"categoryP":"video","categoryS":"hd___tv_shows","magnet":"?xt=urn:btih:b9fb0788ae25b727e5b1ffc3484f577929e0a6db&amp;dn=This+Is+Us+-+S01E02+-+The+Big+Three+%5B1080p%5D+WEB-DL&amp;tr=udp%3A%2F%2Ftracker.leechers-paradise.org%3A6969&amp;tr=udp%3A%2F%2Fzer0day.ch%3A1337&amp;tr=udp%3A%2F%2Fopen.demonii.com%3A1337&amp;tr=udp%3A%2F%2Ftracker.coppersurfer.tk%3A6969&amp;tr=udp%3A%2F%2Fexodus.desync.com%3A6969","seeders":0,"leechers":1,"uploader":"fjn61783","files":2,"time":1475750211,"description":"This Is Us - S01E02 - The Big Three [1080p] WEB-DL \r\n\r\n*Folder includes English .srt files (subtitles) \r\n\r\nFormat : Matroska \r\nFormat version : Version 4 / Version 2 \r\nFile size : 1.73 GiB \r\nDuration : 43 min \r\nOverall bit rate : 5 739 kb/s \r\n\r\nVideo \r\nID : 2 \r\nFormat : AVC \r\nFormat/Info : Advanced Video Codec \r\nFormat profile :    \r\nFormat settings, CABAC : Yes \r\nFormat settings, ReFrames : 4 frames \r\nCodec ID : V_MPEG4/ISO/AVC \r\nDuration : 43 min \r\nBit rate : 5 210 kb/s \r\nWidth : 1 920 pixels \r\nHeight : 1 080 pixels \r\nDisplay aspect ratio : 16:9 \r\nFrame rate mode : Constant \r\nFrame rate : 23.976 (24000/1001) FPS \r\nColor space : YUV \r\nChroma subsampling : 4:2:0 \r\nBit depth : 8 bits \r\nScan type : Progressive \r\nBits/(Pixel*Frame) : 0.105 \r\nStream size : 1.57 GiB (91%) \r\nLanguage : English \r\nDefault : Yes \r\nForced : No \r\n\r\nAudio #1 \r\nID : 1 \r\nFormat : AAC \r\nFormat/Info : Advanced Audio Codec \r\nFormat profile : LC \r\nCodec ID : A_AAC \r\nDuration : 43 min \r\nBit rate : 144 kb/s \r\nChannel(s) : 2 channels \r\nChannel positions : Front: L R \r\nSampling rate : 48.0 kHz \r\nFrame rate : 46.875 FPS (1024 spf) \r\nCompression mode : Lossy \r\nStream size : 43.9 MiB (2%) \r\nLanguage : English \r\nDefault : Yes \r\nForced : No \r\n\r\nAudio #2 \r\nID : 3 \r\nFormat : AC-3 \r\nFormat/Info : Audio Coding 3 \r\nMode extension : CM (complete main) \r\nFormat settings, Endianness : Big \r\nCodec ID : A_AC3 \r\nDuration : 43 min \r\nBit rate mode : Constant \r\nBit rate : 384 kb/s \r\nChannel(s) : 6 channels \r\nChannel positions : Front: L C R, Side: L R, LFE \r\nSampling rate : 48.0 kHz \r\nFrame rate : 31.250 FPS (1536 spf) \r\nCompression mode : Lossy \r\nStream size : 119 MiB (7%) \r\nLanguage : English \r\nDefault : No \r\nForced : No","torrent":{"xt":"urn:btih:b9fb0788ae25b727e5b1ffc3484f577929e0a6db","amp;dn":"This+Is+Us+-+S01E02+-+The+Big+Three+%5B1080p%5D+WEB-DL","amp;tr":["udp%3A%2F%2Ftracker.leechers-paradise.org%3A6969","udp%3A%2F%2Fzer0day.ch%3A1337","udp%3A%2F%2Fopen.demonii.com%3A1337","udp%3A%2F%2Ftracker.coppersurfer.tk%3A6969","udp%3A%2F%2Fexodus.desync.com%3A6969"],"infoHash":"b9fb0788ae25b727e5b1ffc3484f577929e0a6db","infoHashBuffer":{"type":"Buffer","data":[185,251,7,136,174,37,183,39,229,177,255,195,72,79,87,121,41,224,166,219]},"announce":[],"urlList":[]}}